<svg xmlns="http://www.w3.org/2000/svg" viewBox="0 0 512 512"><path d="M256 0a8.166 8.166 0 00-8.166 8.166v44.383a8.166 8.166 0 1016.332 0V8.166A8.166 8.166 0 00256 0zm-93.044 74.165l-21.23-38.976a8.167 8.167 0 00-14.342 7.812l21.231 38.976a8.161 8.161 0 0011.077 3.265 8.166 8.166 0 003.264-11.077zm-78.538 67.396L47.13 117.488a8.162 8.162 0 00-11.289 2.431 8.165 8.165 0 002.431 11.289L75.56 155.28a8.161 8.161 0 0011.289-2.431 8.163 8.163 0 00-2.431-11.288zM381.349 31.924a8.165 8.165 0 00-11.077 3.265l-21.229 38.976a8.166 8.166 0 0014.341 7.812l21.229-38.976a8.165 8.165 0 00-3.264-11.077zm94.81 87.996a8.168 8.168 0 00-11.289-2.431l-37.288 24.072a8.164 8.164 0 00-2.431 11.289 8.16 8.16 0 0011.289 2.432l37.288-24.072a8.167 8.167 0 002.431-11.29zm-118.529-.013c-26.533-26.873-61.926-41.955-99.659-42.465-39.282-.496-77.577 15.748-105.133 44.661a8.165 8.165 0 00.278 11.545 8.165 8.165 0 0011.545-.278c24.432-25.637 58.362-40.089 93.091-39.599 33.416.453 64.761 13.81 88.259 37.61 23.521 23.822 36.474 55.381 36.474 88.862 0 26.958-8.371 52.692-24.209 74.42a8.46 8.46 0 00-.402.605l-.998 1.661c-3.899 6.491-7.479 12.45-10.77 17.996a8.166 8.166 0 1014.044 8.334 3945.556 3945.556 0 0110.724-17.92l.814-1.355c17.749-24.477 27.127-53.425 27.127-83.742-.001-37.804-14.627-73.437-41.185-100.335zm-16.725 220.222a8.167 8.167 0 00-10.995 3.531c-7.356 14.315-11.749 26.121-14.148 38.268H196.238c-4.863-24.654-17.421-45.557-40.65-84.227l-1.461-2.431a8.366 8.366 0 00-.402-.606c-15.838-21.728-24.209-47.462-24.209-74.42 0-21.791 5.819-43.38 16.83-62.432a8.165 8.165 0 00-2.984-11.155 8.164 8.164 0 00-11.155 2.984c-12.443 21.533-19.02 45.947-19.02 70.603 0 30.316 9.378 59.264 27.127 83.742l1.277 2.125c23.336 38.849 34.733 57.826 38.853 80.175-7.504 4.854-12.484 13.29-12.484 22.873 0 7.418 2.984 14.148 7.812 19.064-4.828 4.916-7.812 11.647-7.812 19.064 0 15.015 12.216 27.231 27.229 27.231h11.417C212.696 496.319 232.792 512 256 512s43.304-15.68 49.395-37.483h11.417c15.015 0 27.229-12.216 27.229-27.231 0-7.418-2.984-14.148-7.812-19.064 4.827-4.916 7.812-11.647 7.812-19.064 0-9.583-4.98-18.02-12.484-22.873 2.04-11.092 5.916-21.612 12.878-35.161a8.166 8.166 0 00-3.53-10.995zM256 495.669c-14.214 0-26.716-8.625-32.117-21.152h64.234c-5.403 12.527-17.905 21.152-32.117 21.152zm38.103-59.281h22.708c6.01 0 10.898 4.89 10.898 10.898 0 6.01-4.89 10.899-10.898 10.899H195.187c-6.01 0-10.898-4.89-10.898-10.899s4.89-10.898 10.898-10.898h66.631a8.166 8.166 0 100-16.332h-66.631c-6.01 0-10.898-4.89-10.898-10.898 0-4.921 3.279-9.086 7.766-10.436a10.793 10.793 0 011.679-.355c.48-.063.964-.109 1.453-.109H316.81c.49 0 .973.045 1.453.109.133.017.263.038.395.061.431.073.858.168 1.276.293 4.491 1.347 7.775 5.513 7.775 10.438 0 6.01-4.89 10.898-10.898 10.898h-22.708a8.166 8.166 0 100 16.331z"/></svg>